<?xml version="1.0" encoding="UTF-8" standalone="no"?>
<!-- Generator: Adobe Illustrator 16.0.3, SVG Export Plug-In . SVG Version: 6.00 Build 0)  -->

<svg
   xmlns:dc="http://purl.org/dc/elements/1.1/"
   xmlns:cc="http://creativecommons.org/ns#"
   xmlns:rdf="http://www.w3.org/1999/02/22-rdf-syntax-ns#"
   xmlns:svg="http://www.w3.org/2000/svg"
   xmlns="http://www.w3.org/2000/svg"
   xmlns:sodipodi="http://sodipodi.sourceforge.net/DTD/sodipodi-0.dtd"
   xmlns:inkscape="http://www.inkscape.org/namespaces/inkscape"
   version="1.1"
   x="0px"
   y="0px"
   width="1000px"
   height="1000px"
   viewBox="0 0 1000 1000"
   enable-background="new 0 0 1000 1000"
   xml:space="preserve"
   id="svg3798"
   sodipodi:docname="icon-halfpoke.svg"
   inkscape:version="0.92.4 (5da689c313, 2019-01-14)"><metadata
   id="metadata3804"><rdf:RDF><cc:Work
       rdf:about=""><dc:format>image/svg+xml</dc:format><dc:type
         rdf:resource="http://purl.org/dc/dcmitype/StillImage" /><dc:title></dc:title></cc:Work></rdf:RDF></metadata><defs
   id="defs3802" /><sodipodi:namedview
   pagecolor="#ffffff"
   bordercolor="#666666"
   borderopacity="1"
   objecttolerance="10"
   gridtolerance="10"
   guidetolerance="10"
   inkscape:pageopacity="0"
   inkscape:pageshadow="2"
   inkscape:window-width="1920"
   inkscape:window-height="1057"
   id="namedview3800"
   showgrid="false"
   inkscape:zoom="0.472"
   inkscape:cx="637.32741"
   inkscape:cy="453.14945"
   inkscape:window-x="-8"
   inkscape:window-y="-8"
   inkscape:window-maximized="1"
   inkscape:current-layer="svg3798" />
<g
   id="Layer_1"
   display="none">
</g>
<g
   id="Layer_3"
   display="none">
	<circle
   display="inline"
   fill="#FFFFFF"
   cx="500"
   cy="500"
   r="387"
   id="circle3680" />
</g>
<g
   id="Layer_9"
   display="none">
	<rect
   x="351.507"
   y="350.097"
   display="inline"
   fill="#C157A1"
   width="296.985"
   height="296.985"
   id="rect3683" />
</g>
<g
   id="Layer_10"
   display="none">
</g>
<g
   id="Layer_11"
   display="none">
	<rect
   x="245.763"
   y="245.763"
   display="inline"
   fill="#C157A1"
   width="508.475"
   height="508.475"
   id="rect3687" />
</g>
<g
   id="Layer_12"
   display="none">
	
		<line
   display="inline"
   fill="none"
   stroke="#F15B30"
   stroke-width="10"
   stroke-miterlimit="10"
   x1="350.098"
   y1="645.583"
   x2="647.083"
   y2="348.598"
   id="line3690" />
	
		<line
   display="inline"
   fill="none"
   stroke="#F15B30"
   stroke-width="10"
   stroke-miterlimit="10"
   x1="350.098"
   y1="348.598"
   x2="647.083"
   y2="645.583"
   id="line3692" />
	
		<line
   display="inline"
   fill="none"
   stroke="#F15B30"
   stroke-width="10"
   stroke-miterlimit="10"
   x1="498.591"
   y1="707.091"
   x2="498.591"
   y2="287.091"
   id="line3694" />
	
		<line
   display="inline"
   fill="none"
   stroke="#F15B30"
   stroke-width="10"
   stroke-miterlimit="10"
   x1="288.59"
   y1="497.09"
   x2="708.59"
   y2="497.09"
   id="line3696" />
</g>
<g
   id="Layer_16"
   display="none">
	<polygon
   display="inline"
   fill="none"
   stroke="#3BC2D7"
   stroke-width="10"
   stroke-miterlimit="10"
   points="647.083,645.583    350.098,348.598 647.083,348.598 350.098,645.583  "
   id="polygon3699" />
</g>
<g
   id="Layer_13"
   display="none">
	
		<circle
   display="inline"
   fill="none"
   stroke="#072B3F"
   stroke-width="10"
   stroke-miterlimit="10"
   cx="498.601"
   cy="497.091"
   r="210"
   id="circle3702" />
	
		<circle
   display="inline"
   fill="none"
   stroke="#072B3F"
   stroke-width="10"
   stroke-miterlimit="10"
   cx="498.601"
   cy="497.091"
   r="189"
   id="circle3704" />
	
		<circle
   display="inline"
   fill="none"
   stroke="#072B3F"
   stroke-width="10"
   stroke-miterlimit="10"
   cx="498.601"
   cy="497.091"
   r="168.21"
   id="circle3706" />
	
		<circle
   display="inline"
   fill="none"
   stroke="#072B3F"
   stroke-width="10"
   stroke-miterlimit="10"
   cx="498.602"
   cy="497.091"
   r="148.025"
   id="circle3708" />
	
		<circle
   display="inline"
   fill="none"
   stroke="#072B3F"
   stroke-width="10"
   stroke-miterlimit="10"
   cx="498.602"
   cy="497.091"
   r="148.025"
   id="circle3710" />
</g>
<g
   id="Layer_15"
   display="none">
	
		<circle
   display="inline"
   fill="none"
   stroke="#072B3F"
   stroke-width="10"
   stroke-miterlimit="10"
   cx="498.602"
   cy="497.091"
   r="59.21"
   id="circle3713" />
	
		<circle
   display="inline"
   fill="none"
   stroke="#072B3F"
   stroke-width="10"
   stroke-miterlimit="10"
   cx="498.602"
   cy="344.97"
   r="59.21"
   id="circle3715" />
	
		<circle
   display="inline"
   fill="none"
   stroke="#072B3F"
   stroke-width="10"
   stroke-miterlimit="10"
   cx="498.602"
   cy="647.206"
   r="59.21"
   id="circle3717" />
	
		<circle
   display="inline"
   fill="none"
   stroke="#072B3F"
   stroke-width="10"
   stroke-miterlimit="10"
   cx="348.482"
   cy="417.03"
   r="59.21"
   id="circle3719" />
	
		<circle
   display="inline"
   fill="none"
   stroke="#072B3F"
   stroke-width="10"
   stroke-miterlimit="10"
   cx="348.482"
   cy="569.149"
   r="59.21"
   id="circle3721" />
	
		<circle
   display="inline"
   fill="none"
   stroke="#072B3F"
   stroke-width="10"
   stroke-miterlimit="10"
   cx="648.717"
   cy="417.03"
   r="59.21"
   id="circle3723" />
	
		<circle
   display="inline"
   fill="none"
   stroke="#072B3F"
   stroke-width="10"
   stroke-miterlimit="10"
   cx="648.717"
   cy="569.149"
   r="59.21"
   id="circle3725" />
</g>
<g
   id="Layer_14"
   display="none">
</g>
<g
   id="Layer_6">
	<path
   fill="#3BC2D7"
   d="M999.709,1000V0.459c-273.653,2.772-494.637,225.46-494.637,499.77   C505.072,774.538,726.056,997.229,999.709,1000z"
   id="path3729"
   style="fill:#0f9aff;fill-opacity:1" />
</g>

<g
   id="Layer_8"
   display="none">
	<g
   display="inline"
   id="g3769">
		<path
   fill="#072B3F"
   d="M501.742,645.606L501.742,645.606v-9.865l0,0c-75.61,0-137.123-61.512-137.123-137.124    c0-75.61,61.513-137.124,137.123-137.124l0,0v-9.865l0,0c-81.049,0-146.988,65.939-146.988,146.988    C354.754,579.668,420.693,645.606,501.742,645.606z"
   id="path3755" />
		<path
   fill="#072B3F"
   d="M374.73,498.617c0,70.036,56.979,127.013,127.012,127.013v-9.865    c-64.593,0-117.147-52.553-117.147-117.147s52.554-117.146,117.147-117.146v-9.865C431.709,371.606,374.73,428.583,374.73,498.617    z"
   id="path3757" />
		<path
   fill="#072B3F"
   d="M501.36,351.63L501.36,351.63v9.864l0,0c75.61,0,137.122,61.513,137.122,137.125    c0,75.611-61.512,137.124-137.122,137.124l0,0v9.865l0,0c81.049,0,146.988-65.939,146.988-146.989    C648.349,417.568,582.409,351.63,501.36,351.63z"
   id="path3759" />
		<path
   fill="#072B3F"
   d="M628.372,498.619c0-70.036-56.979-127.013-127.012-127.013v9.865c64.594,0,117.146,52.552,117.146,117.147    S565.954,615.766,501.36,615.766v9.864C571.395,625.63,628.372,568.653,628.372,498.619z"
   id="path3761" />
		<g
   id="g3767">
			<path
   fill="#072B3F"
   d="M394.708,498.617c0,59.021,48.016,107.035,107.035,107.035v-9.863c-53.579,0-97.169-43.592-97.169-97.172     c0-53.58,43.59-97.17,97.169-97.17v-9.865C442.724,391.583,394.708,439.599,394.708,498.617z"
   id="path3763" />
			<path
   fill="#072B3F"
   d="M608.396,498.619c0-59.02-48.018-107.035-107.035-107.035v9.864c53.579,0,97.169,43.592,97.169,97.171     s-43.59,97.17-97.169,97.17v9.864C560.379,605.653,608.396,557.638,608.396,498.619z"
   id="path3765" />
		</g>
	</g>
</g>
<g
   id="Layer_7"
   display="none">
</g>
<g
   id="Layer_5"
   display="none">
	<g
   display="inline"
   id="g3781">
		<line
   fill="none"
   stroke="#02BCD9"
   stroke-width="10"
   stroke-miterlimit="10"
   x1="353.75"
   y1="500"
   x2="646.25"
   y2="500"
   id="line3773" />
		<line
   fill="none"
   stroke="#02BCD9"
   stroke-width="10"
   stroke-miterlimit="10"
   x1="500"
   y1="353.75"
   x2="500"
   y2="646.25"
   id="line3775" />
		
			<line
   fill="none"
   stroke="#02BCD9"
   stroke-width="10"
   stroke-miterlimit="10"
   x1="396.585"
   y1="396.585"
   x2="603.414"
   y2="603.414"
   id="line3777" />
		
			<line
   fill="none"
   stroke="#02BCD9"
   stroke-width="10"
   stroke-miterlimit="10"
   x1="603.414"
   y1="396.586"
   x2="396.585"
   y2="603.414"
   id="line3779" />
	</g>
</g>
<g
   id="Layer_4"
   display="none">
	<g
   display="inline"
   id="g3792">
		<line
   fill="none"
   stroke="#5C1C1F"
   stroke-width="10"
   stroke-miterlimit="10"
   x1="353.75"
   y1="500"
   x2="646.25"
   y2="500"
   id="line3784" />
		<line
   fill="none"
   stroke="#5C1C1F"
   stroke-width="10"
   stroke-miterlimit="10"
   x1="500"
   y1="353.75"
   x2="500"
   y2="646.25"
   id="line3786" />
		
			<line
   fill="none"
   stroke="#5C1C1F"
   stroke-width="10"
   stroke-miterlimit="10"
   x1="396.585"
   y1="396.585"
   x2="603.414"
   y2="603.414"
   id="line3788" />
		
			<line
   fill="none"
   stroke="#5C1C1F"
   stroke-width="10"
   stroke-miterlimit="10"
   x1="603.414"
   y1="396.586"
   x2="396.585"
   y2="603.414"
   id="line3790" />
	</g>
</g>
<g
   id="Layer_2"
   display="none">
	<circle
   display="inline"
   fill="#FFFFFF"
   cx="500"
   cy="500"
   r="387"
   id="circle3795" />
</g>
<circle
   style="fill:none;fill-opacity:1;fill-rule:nonzero;stroke:#ffffff;stroke-width:50;stroke-miterlimit:4;stroke-dasharray:none;stroke-opacity:1"
   id="path4369"
   cx="1006.2372"
   cy="505.53391"
   r="322.40494" /><circle
   style="fill:none;fill-opacity:1;fill-rule:nonzero;stroke:#ffffff;stroke-width:50;stroke-miterlimit:4;stroke-dasharray:none;stroke-opacity:1"
   id="path4369-2"
   cx="1006.4745"
   cy="510.35596"
   r="121.85439" /><rect
   style="fill:#ffffff;fill-opacity:1;fill-rule:nonzero;stroke:#ffffff;stroke-width:3.32239819;stroke-miterlimit:4;stroke-dasharray:none;stroke-opacity:1"
   id="rect4386"
   width="232.84709"
   height="50.643703"
   x="666.1781"
   y="484.44934"
   rx="0"
   ry="50.643703" /></svg>